<mxfile host="drawio-plugin" agent="Mozilla/5.0 (Windows NT 10.0; Win64; x64) AppleWebKit/537.36 (KHTML, like Gecko) Chrome/122.0.0.0 Safari/537.36" modified="2025-02-28T08:45:45.860Z" etag="53zITfoJG5rxavbdGFmM" version="22.1.22" type="embed">
  <diagram name="Страница — 1" id="XASjYnROchEVnQ0i06pS">
    <mxGraphModel dx="1124" dy="742" grid="1" gridSize="10" guides="1" tooltips="1" connect="1" arrows="1" fold="1" page="1" pageScale="1" pageWidth="827" pageHeight="1169" math="0" shadow="0">
      <root>
        <mxCell id="0" />
        <mxCell id="1" parent="0" />
        <mxCell id="FkduWA8ncYVS3PLSWbOL-22" value="Communication Network" style="swimlane;whiteSpace=wrap;html=1;startSize=30;direction=east;" parent="1" vertex="1">
          <mxGeometry x="60" y="50" width="280" height="530" as="geometry" />
        </mxCell>
        <mxCell id="AfU-c1p0oRzA97W1R4Gb-16" value="Drone 1" style="swimlane;whiteSpace=wrap;html=1;" parent="1" vertex="1">
          <mxGeometry x="74" y="90" width="220" height="140" as="geometry">
            <mxRectangle x="140" y="230" width="140" height="30" as="alternateBounds" />
          </mxGeometry>
        </mxCell>
        <mxCell id="AfU-c1p0oRzA97W1R4Gb-17" value="" style="rhombus;whiteSpace=wrap;html=1;fillColor=default;" parent="AfU-c1p0oRzA97W1R4Gb-16" vertex="1">
          <mxGeometry x="10" y="30" width="100" height="100" as="geometry" />
        </mxCell>
        <mxCell id="AfU-c1p0oRzA97W1R4Gb-18" value="" style="shape=image;verticalLabelPosition=bottom;labelBackgroundColor=default;verticalAlign=top;aspect=fixed;imageAspect=0;image=https://cdn-icons-png.flaticon.com/128/99/99466.png;" parent="AfU-c1p0oRzA97W1R4Gb-16" vertex="1">
          <mxGeometry x="60" y="65" width="30" height="30" as="geometry" />
        </mxCell>
        <mxCell id="AfU-c1p0oRzA97W1R4Gb-19" value="" style="shape=image;verticalLabelPosition=bottom;labelBackgroundColor=default;verticalAlign=top;aspect=fixed;imageAspect=0;image=https://cdn-icons-png.flaticon.com/128/2752/2752877.png;" parent="AfU-c1p0oRzA97W1R4Gb-16" vertex="1">
          <mxGeometry x="160" y="55" width="50" height="50" as="geometry" />
        </mxCell>
        <mxCell id="AfU-c1p0oRzA97W1R4Gb-20" value="" style="edgeStyle=orthogonalEdgeStyle;rounded=0;orthogonalLoop=1;jettySize=auto;html=1;exitX=0;exitY=0.5;exitDx=0;exitDy=0;entryX=1;entryY=0.5;entryDx=0;entryDy=0;startArrow=classicThin;startFill=0;endArrow=classicThin;endFill=0;strokeColor=#FF0000;" parent="AfU-c1p0oRzA97W1R4Gb-16" source="AfU-c1p0oRzA97W1R4Gb-19" target="AfU-c1p0oRzA97W1R4Gb-18" edge="1">
          <mxGeometry x="-0.1429" relative="1" as="geometry">
            <mxPoint as="offset" />
          </mxGeometry>
        </mxCell>
        <mxCell id="AfU-c1p0oRzA97W1R4Gb-15" value="Drone 2" style="swimlane;whiteSpace=wrap;html=1;" parent="1" vertex="1">
          <mxGeometry x="74" y="250" width="220" height="140" as="geometry">
            <mxRectangle x="140" y="230" width="140" height="30" as="alternateBounds" />
          </mxGeometry>
        </mxCell>
        <mxCell id="AfU-c1p0oRzA97W1R4Gb-6" value="" style="rhombus;whiteSpace=wrap;html=1;" parent="AfU-c1p0oRzA97W1R4Gb-15" vertex="1">
          <mxGeometry x="10" y="30" width="100" height="100" as="geometry" />
        </mxCell>
        <mxCell id="AfU-c1p0oRzA97W1R4Gb-9" value="" style="shape=image;verticalLabelPosition=bottom;labelBackgroundColor=default;verticalAlign=top;aspect=fixed;imageAspect=0;image=https://cdn-icons-png.flaticon.com/128/99/99466.png;imageBackground=none;" parent="AfU-c1p0oRzA97W1R4Gb-15" vertex="1">
          <mxGeometry x="60" y="65" width="30" height="30" as="geometry" />
        </mxCell>
        <mxCell id="AfU-c1p0oRzA97W1R4Gb-7" value="" style="shape=image;verticalLabelPosition=bottom;labelBackgroundColor=default;verticalAlign=top;aspect=fixed;imageAspect=0;image=https://cdn-icons-png.flaticon.com/128/2752/2752877.png;imageBackground=none;imageBorder=none;" parent="AfU-c1p0oRzA97W1R4Gb-15" vertex="1">
          <mxGeometry x="160" y="55" width="50" height="50" as="geometry" />
        </mxCell>
        <mxCell id="AfU-c1p0oRzA97W1R4Gb-14" value="" style="edgeStyle=orthogonalEdgeStyle;rounded=0;orthogonalLoop=1;jettySize=auto;html=1;exitX=0;exitY=0.5;exitDx=0;exitDy=0;entryX=1;entryY=0.5;entryDx=0;entryDy=0;startArrow=classicThin;startFill=0;endArrow=classicThin;endFill=0;strokeColor=#FF0000;" parent="AfU-c1p0oRzA97W1R4Gb-15" source="AfU-c1p0oRzA97W1R4Gb-7" target="AfU-c1p0oRzA97W1R4Gb-9" edge="1">
          <mxGeometry x="-0.1429" relative="1" as="geometry">
            <mxPoint as="offset" />
          </mxGeometry>
        </mxCell>
        <mxCell id="AfU-c1p0oRzA97W1R4Gb-21" value="Drone 3" style="swimlane;whiteSpace=wrap;html=1;" parent="1" vertex="1">
          <mxGeometry x="74" y="410" width="220" height="140" as="geometry">
            <mxRectangle x="140" y="230" width="140" height="30" as="alternateBounds" />
          </mxGeometry>
        </mxCell>
        <mxCell id="AfU-c1p0oRzA97W1R4Gb-22" value="" style="rhombus;whiteSpace=wrap;html=1;" parent="AfU-c1p0oRzA97W1R4Gb-21" vertex="1">
          <mxGeometry x="10" y="30" width="100" height="100" as="geometry" />
        </mxCell>
        <mxCell id="AfU-c1p0oRzA97W1R4Gb-23" value="" style="shape=image;verticalLabelPosition=bottom;labelBackgroundColor=default;verticalAlign=top;aspect=fixed;imageAspect=0;image=https://cdn-icons-png.flaticon.com/128/99/99466.png;" parent="AfU-c1p0oRzA97W1R4Gb-21" vertex="1">
          <mxGeometry x="60" y="65" width="30" height="30" as="geometry" />
        </mxCell>
        <mxCell id="AfU-c1p0oRzA97W1R4Gb-24" value="" style="shape=image;verticalLabelPosition=bottom;labelBackgroundColor=default;verticalAlign=top;aspect=fixed;imageAspect=0;image=https://cdn-icons-png.flaticon.com/128/2752/2752877.png;" parent="AfU-c1p0oRzA97W1R4Gb-21" vertex="1">
          <mxGeometry x="160" y="55" width="50" height="50" as="geometry" />
        </mxCell>
        <mxCell id="AfU-c1p0oRzA97W1R4Gb-25" value="" style="edgeStyle=orthogonalEdgeStyle;rounded=0;orthogonalLoop=1;jettySize=auto;html=1;exitX=0;exitY=0.5;exitDx=0;exitDy=0;entryX=1;entryY=0.5;entryDx=0;entryDy=0;startArrow=classicThin;startFill=0;endArrow=classicThin;endFill=0;strokeColor=#FF0000;" parent="AfU-c1p0oRzA97W1R4Gb-21" source="AfU-c1p0oRzA97W1R4Gb-24" target="AfU-c1p0oRzA97W1R4Gb-23" edge="1">
          <mxGeometry x="-0.1429" relative="1" as="geometry">
            <mxPoint as="offset" />
          </mxGeometry>
        </mxCell>
        <mxCell id="AfU-c1p0oRzA97W1R4Gb-26" style="edgeStyle=orthogonalEdgeStyle;rounded=0;orthogonalLoop=1;jettySize=auto;html=1;exitX=1;exitY=0.5;exitDx=0;exitDy=0;entryX=1;entryY=0.5;entryDx=0;entryDy=0;endArrow=openThin;endFill=0;startArrow=openThin;startFill=0;strokeColor=#82b366;fillColor=#d5e8d4;" parent="1" source="AfU-c1p0oRzA97W1R4Gb-19" target="AfU-c1p0oRzA97W1R4Gb-7" edge="1">
          <mxGeometry relative="1" as="geometry">
            <Array as="points">
              <mxPoint x="324" y="170" />
              <mxPoint x="324" y="330" />
            </Array>
          </mxGeometry>
        </mxCell>
        <mxCell id="AfU-c1p0oRzA97W1R4Gb-27" style="edgeStyle=orthogonalEdgeStyle;rounded=0;orthogonalLoop=1;jettySize=auto;html=1;exitX=1;exitY=0.5;exitDx=0;exitDy=0;entryX=1;entryY=0.5;entryDx=0;entryDy=0;endArrow=openThin;endFill=0;startArrow=openThin;startFill=0;strokeColor=#82b366;fillColor=#d5e8d4;" parent="1" source="AfU-c1p0oRzA97W1R4Gb-7" target="AfU-c1p0oRzA97W1R4Gb-24" edge="1">
          <mxGeometry relative="1" as="geometry">
            <mxPoint x="294" y="180" as="sourcePoint" />
            <mxPoint x="294" y="340" as="targetPoint" />
            <Array as="points">
              <mxPoint x="324" y="330" />
              <mxPoint x="324" y="490" />
            </Array>
          </mxGeometry>
        </mxCell>
        <mxCell id="AfU-c1p0oRzA97W1R4Gb-28" value="" style="edgeStyle=orthogonalEdgeStyle;rounded=0;orthogonalLoop=1;jettySize=auto;html=1;exitX=1;exitY=0.5;exitDx=0;exitDy=0;entryX=1;entryY=0.5;entryDx=0;entryDy=0;startArrow=openThin;startFill=0;endArrow=openThin;endFill=0;strokeColor=#82b366;fillColor=#d5e8d4;" parent="1" source="AfU-c1p0oRzA97W1R4Gb-24" target="AfU-c1p0oRzA97W1R4Gb-19" edge="1">
          <mxGeometry relative="1" as="geometry">
            <Array as="points">
              <mxPoint x="324" y="490" />
              <mxPoint x="324" y="170" />
            </Array>
          </mxGeometry>
        </mxCell>
        <mxCell id="AfU-c1p0oRzA97W1R4Gb-30" value="" style="edgeStyle=orthogonalEdgeStyle;rounded=0;orthogonalLoop=1;jettySize=auto;html=1;exitX=0.5;exitY=0;exitDx=0;exitDy=0;entryX=0.5;entryY=0;entryDx=0;entryDy=0;startArrow=none;startFill=0;endArrow=classicThin;endFill=1;strokeColor=#0000FF;dashed=1;" parent="1" source="AfU-c1p0oRzA97W1R4Gb-18" target="FkduWA8ncYVS3PLSWbOL-19" edge="1">
          <mxGeometry relative="1" as="geometry">
            <Array as="points">
              <mxPoint x="149" y="130" />
              <mxPoint x="405" y="130" />
            </Array>
          </mxGeometry>
        </mxCell>
        <mxCell id="AfU-c1p0oRzA97W1R4Gb-31" value="" style="edgeStyle=orthogonalEdgeStyle;rounded=0;orthogonalLoop=1;jettySize=auto;html=1;exitX=0.5;exitY=0;exitDx=0;exitDy=0;entryX=0.5;entryY=0;entryDx=0;entryDy=0;startArrow=none;startFill=0;endArrow=classicThin;endFill=1;strokeColor=#0000FF;dashed=1;" parent="1" source="AfU-c1p0oRzA97W1R4Gb-9" target="FkduWA8ncYVS3PLSWbOL-18" edge="1">
          <mxGeometry relative="1" as="geometry">
            <Array as="points">
              <mxPoint x="149" y="290" />
              <mxPoint x="395" y="290" />
            </Array>
          </mxGeometry>
        </mxCell>
        <mxCell id="AfU-c1p0oRzA97W1R4Gb-43" value="Уловные обозначения" style="swimlane;whiteSpace=wrap;html=1;" parent="1" vertex="1">
          <mxGeometry x="430" y="50" width="200" height="230" as="geometry" />
        </mxCell>
        <mxCell id="AfU-c1p0oRzA97W1R4Gb-37" value="&amp;nbsp; MAVLink" style="edgeStyle=orthogonalEdgeStyle;rounded=0;orthogonalLoop=1;jettySize=auto;html=1;exitX=0.5;exitY=0;exitDx=0;exitDy=0;startArrow=classicThin;startFill=1;endArrow=classicThin;endFill=1;strokeColor=#0000FF;labelPosition=right;verticalLabelPosition=middle;align=left;verticalAlign=middle;" parent="AfU-c1p0oRzA97W1R4Gb-43" edge="1">
          <mxGeometry x="1" y="-1" relative="1" as="geometry">
            <mxPoint x="20" y="179.43" as="sourcePoint" />
            <mxPoint x="70" y="179.43" as="targetPoint" />
            <mxPoint as="offset" />
          </mxGeometry>
        </mxCell>
        <mxCell id="AfU-c1p0oRzA97W1R4Gb-39" value="&amp;nbsp; UART" style="edgeStyle=orthogonalEdgeStyle;rounded=0;orthogonalLoop=1;jettySize=auto;html=1;entryX=1;entryY=0.5;entryDx=0;entryDy=0;startArrow=classicThin;startFill=0;endArrow=classicThin;endFill=0;strokeColor=#FF0000;labelPosition=right;verticalLabelPosition=middle;align=left;verticalAlign=middle;" parent="AfU-c1p0oRzA97W1R4Gb-43" edge="1">
          <mxGeometry x="-1" y="1" relative="1" as="geometry">
            <mxPoint x="70" y="199.43" as="sourcePoint" />
            <mxPoint x="20" y="199.43" as="targetPoint" />
            <mxPoint as="offset" />
          </mxGeometry>
        </mxCell>
        <mxCell id="AfU-c1p0oRzA97W1R4Gb-40" value="     Микроконтроллер" style="shape=image;verticalLabelPosition=middle;labelBackgroundColor=default;verticalAlign=middle;aspect=fixed;imageAspect=0;image=https://cdn-icons-png.flaticon.com/128/99/99466.png;labelPosition=right;align=left;" parent="AfU-c1p0oRzA97W1R4Gb-43" vertex="1">
          <mxGeometry x="30" y="129.43" width="30" height="30" as="geometry" />
        </mxCell>
        <mxCell id="AfU-c1p0oRzA97W1R4Gb-41" value="  ESP" style="shape=image;verticalLabelPosition=middle;labelBackgroundColor=default;verticalAlign=middle;aspect=fixed;imageAspect=0;image=https://cdn-icons-png.flaticon.com/128/2752/2752877.png;labelPosition=right;align=left;imageBackground=none;" parent="AfU-c1p0oRzA97W1R4Gb-43" vertex="1">
          <mxGeometry x="20" y="79.43" width="50" height="50" as="geometry" />
        </mxCell>
        <mxCell id="FkduWA8ncYVS3PLSWbOL-14" value="  Базовая станция" style="group;labelPosition=right;verticalLabelPosition=middle;align=left;verticalAlign=middle;" parent="AfU-c1p0oRzA97W1R4Gb-43" vertex="1" connectable="0">
          <mxGeometry x="20" y="29.43" width="50" height="60.57" as="geometry" />
        </mxCell>
        <mxCell id="FkduWA8ncYVS3PLSWbOL-15" value="" style="shape=image;verticalLabelPosition=bottom;labelBackgroundColor=default;verticalAlign=top;aspect=fixed;imageAspect=0;image=https://www.shareicon.net/download/2016/02/13/718336_game_512x512.png;imageBorder=default;dashed=1;" parent="FkduWA8ncYVS3PLSWbOL-14" vertex="1">
          <mxGeometry width="50" height="50" as="geometry" />
        </mxCell>
        <mxCell id="AfU-c1p0oRzA97W1R4Gb-85" value="&amp;nbsp; ESP-NOW" style="edgeStyle=orthogonalEdgeStyle;rounded=0;orthogonalLoop=1;jettySize=auto;html=1;endArrow=openThin;endFill=0;startArrow=openThin;startFill=0;strokeColor=#82b366;fillColor=#d5e8d4;labelPosition=right;verticalLabelPosition=middle;align=left;verticalAlign=middle;" parent="AfU-c1p0oRzA97W1R4Gb-43" edge="1">
          <mxGeometry x="1" relative="1" as="geometry">
            <mxPoint x="20" y="220" as="sourcePoint" />
            <mxPoint x="70" y="220" as="targetPoint" />
            <Array as="points">
              <mxPoint x="70" y="220" />
              <mxPoint x="70" y="220" />
            </Array>
            <mxPoint as="offset" />
          </mxGeometry>
        </mxCell>
        <mxCell id="FkduWA8ncYVS3PLSWbOL-21" value="" style="group;fillColor=default;" parent="1" vertex="1" connectable="0">
          <mxGeometry x="380" y="480" width="101" height="101" as="geometry" />
        </mxCell>
        <mxCell id="AfU-c1p0oRzA97W1R4Gb-29" value="" style="shape=image;verticalLabelPosition=bottom;labelBackgroundColor=default;verticalAlign=top;aspect=fixed;imageAspect=0;image=https://www.shareicon.net/download/2016/02/13/718336_game_512x512.png;imageBorder=default;dashed=1;" parent="FkduWA8ncYVS3PLSWbOL-21" vertex="1">
          <mxGeometry width="101" height="101" as="geometry" />
        </mxCell>
        <mxCell id="FkduWA8ncYVS3PLSWbOL-17" value="" style="whiteSpace=wrap;html=1;aspect=fixed;fillColor=#CCE5FF;gradientColor=none;" parent="FkduWA8ncYVS3PLSWbOL-21" vertex="1">
          <mxGeometry width="10" height="10" as="geometry" />
        </mxCell>
        <mxCell id="FkduWA8ncYVS3PLSWbOL-18" value="" style="whiteSpace=wrap;html=1;aspect=fixed;fillColor=#CCE5FF;fillStyle=auto;gradientColor=none;gradientDirection=radial;" parent="FkduWA8ncYVS3PLSWbOL-21" vertex="1">
          <mxGeometry x="10" width="10" height="10" as="geometry" />
        </mxCell>
        <mxCell id="FkduWA8ncYVS3PLSWbOL-19" value="" style="whiteSpace=wrap;html=1;aspect=fixed;fillColor=#CCE5FF;" parent="FkduWA8ncYVS3PLSWbOL-21" vertex="1">
          <mxGeometry x="20" width="10" height="10" as="geometry" />
        </mxCell>
        <mxCell id="FkduWA8ncYVS3PLSWbOL-20" value="" style="whiteSpace=wrap;html=1;aspect=fixed;" parent="FkduWA8ncYVS3PLSWbOL-21" vertex="1">
          <mxGeometry x="30" width="10" height="10" as="geometry" />
        </mxCell>
        <mxCell id="FkduWA8ncYVS3PLSWbOL-26" style="edgeStyle=orthogonalEdgeStyle;rounded=0;orthogonalLoop=1;jettySize=auto;html=1;exitX=0.5;exitY=0;exitDx=0;exitDy=0;entryX=0.5;entryY=0;entryDx=0;entryDy=0;strokeColor=#0000FF;dashed=1;endArrow=classicThin;endFill=1;startArrow=none;startFill=0;" parent="1" source="AfU-c1p0oRzA97W1R4Gb-23" target="FkduWA8ncYVS3PLSWbOL-17" edge="1">
          <mxGeometry relative="1" as="geometry">
            <mxPoint x="360" y="475.1052631578948" as="targetPoint" />
            <Array as="points">
              <mxPoint x="149" y="450" />
              <mxPoint x="385" y="450" />
            </Array>
          </mxGeometry>
        </mxCell>
        <mxCell id="FkduWA8ncYVS3PLSWbOL-68" style="edgeStyle=orthogonalEdgeStyle;rounded=0;orthogonalLoop=1;jettySize=auto;html=1;exitX=0.5;exitY=0;exitDx=0;exitDy=0;entryX=0.5;entryY=1;entryDx=0;entryDy=0;endArrow=classicThin;endFill=1;strokeColor=#0000FF;" parent="1" source="FkduWA8ncYVS3PLSWbOL-20" target="AfU-c1p0oRzA97W1R4Gb-23" edge="1">
          <mxGeometry relative="1" as="geometry">
            <Array as="points">
              <mxPoint x="415" y="460" />
              <mxPoint x="360" y="460" />
              <mxPoint x="360" y="530" />
              <mxPoint x="149" y="530" />
            </Array>
          </mxGeometry>
        </mxCell>
        <mxCell id="FkduWA8ncYVS3PLSWbOL-69" style="edgeStyle=orthogonalEdgeStyle;rounded=0;orthogonalLoop=1;jettySize=auto;html=1;exitX=0.5;exitY=0;exitDx=0;exitDy=0;entryX=0.5;entryY=1;entryDx=0;entryDy=0;strokeColor=#0000FF;" parent="1" source="FkduWA8ncYVS3PLSWbOL-20" target="AfU-c1p0oRzA97W1R4Gb-9" edge="1">
          <mxGeometry relative="1" as="geometry">
            <Array as="points">
              <mxPoint x="415" y="370" />
              <mxPoint x="149" y="370" />
            </Array>
          </mxGeometry>
        </mxCell>
        <mxCell id="FkduWA8ncYVS3PLSWbOL-70" style="edgeStyle=orthogonalEdgeStyle;rounded=0;orthogonalLoop=1;jettySize=auto;html=1;exitX=0.5;exitY=0;exitDx=0;exitDy=0;entryX=0.5;entryY=1;entryDx=0;entryDy=0;strokeColor=#0000FF;" parent="1" source="FkduWA8ncYVS3PLSWbOL-20" target="AfU-c1p0oRzA97W1R4Gb-18" edge="1">
          <mxGeometry relative="1" as="geometry">
            <Array as="points">
              <mxPoint x="415" y="210" />
              <mxPoint x="149" y="210" />
            </Array>
          </mxGeometry>
        </mxCell>
      </root>
    </mxGraphModel>
  </diagram>
</mxfile>
